<svg width="24" height="24" viewBox="0 0 24 24" fill="none" xmlns="http://www.w3.org/2000/svg">
<g clip-path="url(#clip0_56_2057)">
<path d="M23.6383 14.9029C22.0356 21.3315 15.5244 25.2438 9.09503 23.6407C2.66833 22.038 -1.24401 15.5265 0.359382 9.09837C1.96136 2.66903 8.47253 -1.24361 14.8999 0.359081C21.3289 1.96177 25.241 8.47404 23.6381 14.903L23.6382 14.9029H23.6383Z" fill="#F7931A"/>
<path d="M17.2901 10.2903C17.529 8.69335 16.3132 7.83494 14.6507 7.26229L15.19 5.0991L13.8732 4.77098L13.3482 6.87722C13.002 6.79088 12.6465 6.70952 12.2931 6.62887L12.822 4.50873L11.506 4.18062L10.9664 6.34311C10.6799 6.27788 10.3985 6.21342 10.1255 6.1455L10.1271 6.13869L8.31117 5.68523L7.96089 7.09166C7.96089 7.09166 8.93784 7.3156 8.91726 7.32939C9.45049 7.46248 9.54692 7.81546 9.5309 8.09525L8.91655 10.5596C8.95327 10.569 9.0009 10.5824 9.05345 10.6036C9.00952 10.5927 8.96277 10.5807 8.91426 10.5691L8.05315 14.0214C7.98799 14.1834 7.82258 14.4265 7.44977 14.3342C7.46297 14.3533 6.4927 14.0953 6.4927 14.0953L5.83893 15.6027L7.55253 16.0298C7.87132 16.1098 8.18372 16.1934 8.49136 16.2721L7.94646 18.4601L9.26174 18.7882L9.80136 16.6234C10.1607 16.721 10.5094 16.811 10.8508 16.8958L10.3129 19.0503L11.6298 19.3785L12.1747 17.1946C14.4201 17.6195 16.1085 17.4482 16.8191 15.4172C17.3918 13.782 16.7906 12.8388 15.6093 12.2238C16.4697 12.0254 17.1178 11.4595 17.2906 10.2905L17.2902 10.2902L17.2901 10.2903ZM14.2815 14.5091C13.8746 16.1443 11.1214 15.2604 10.2288 15.0387L10.9519 12.14C11.8445 12.3628 14.7068 12.8038 14.2816 14.5091H14.2815ZM14.6888 10.2666C14.3176 11.754 12.0261 10.9983 11.2827 10.813L11.9383 8.18405C12.6817 8.36934 15.0755 8.71517 14.6889 10.2666H14.6888Z" fill="white"/>
</g>
<defs>
<clipPath id="clip0_56_2057">
<rect width="23.9973" height="24" fill="white"/>
</clipPath>
</defs>
</svg>
