<svg width="88" height="24" viewBox="0 0 88 24" fill="none" xmlns="http://www.w3.org/2000/svg">
<g clip-path="url(#clip0_634_96223)">
<path d="M3.57818 0H0V19.19H3.57818V0Z" fill="#6F5CFF"/>
<path d="M10.8697 9.59503H7.29153V19.19H10.8697V9.59503Z" fill="#6F5CFF"/>
<path d="M14.4613 0H10.8832V9.59504H14.4613V0Z" fill="#6F5CFF"/>
<mask id="mask0_634_96223" style="mask-type:luminance" maskUnits="userSpaceOnUse" x="26" y="0" width="62" height="24">
<path d="M87.8354 0.0348511H26.5675V23.9999H87.8354V0.0348511Z" fill="white"/>
</mask>
<g mask="url(#mask0_634_96223)">
<path d="M42.278 12.0603C42.278 7.72452 45.0921 4.70898 49.2984 4.70898C53.8235 4.70898 56.4639 8.12604 56.202 13.0088H45.5279C45.5862 15.3352 47.1518 16.8571 49.3284 16.8571C51.3597 16.8571 52.3746 15.9086 52.8669 14.6462L55.9716 15.0477C55.3039 17.1446 53.2442 19.4132 49.3868 19.4132C44.6582 19.4132 42.2797 16.168 42.2797 12.062L42.278 12.0603ZM45.5279 10.6541H52.9254C52.8386 8.50113 51.2713 7.15116 49.3284 7.15116C47.3856 7.15116 45.6446 8.21362 45.5279 10.6541Z" fill="white"/>
<path d="M66.4271 8.15601C65.9046 8.09818 65.4406 8.07009 64.9482 8.07009C62.947 8.07009 61.7868 8.9607 61.7868 11.8325V19.0698H58.5671V4.99672H61.7285V7.32323C62.5112 5.80142 63.905 4.99672 65.6442 4.96863C65.9046 4.96863 66.195 4.99672 66.4271 5.02647V8.15601Z" fill="white"/>
<path d="M71.6282 24.0349H68.4085V4.9965H71.513L71.5415 6.7199C72.4694 5.39967 73.8615 4.70898 75.776 4.70898C79.3146 4.70898 81.8684 7.46511 81.8684 12.0884C81.8684 16.7116 79.1711 19.4116 75.5441 19.4116C73.6879 19.4116 72.4111 18.6367 71.6282 17.632V24.0349ZM71.483 12.0884C71.483 15.1898 72.9619 16.8554 75.1084 16.8554C77.2549 16.8554 78.5602 14.9601 78.5602 12.0603C78.5602 9.16042 77.3701 7.26518 75.1084 7.26518C72.9902 7.26518 71.483 8.93074 71.483 12.0901V12.0884Z" fill="white"/>
<path d="M87.6521 19.068H84.0735V-0.00012207H87.6521V19.068Z" fill="white"/>
<path d="M27.144 -0.00012207H30.6986V19.068H27.144V-0.00012207Z" fill="white"/>
<path d="M32.8593 -0.00012207H32.7758V2.84191H32.8593C35.2662 2.84191 37.6164 3.09969 37.6164 6.25897C37.6164 9.04485 35.615 9.53229 33.0329 9.53229H32.7741V12.3182H32.9161C37.5279 12.3182 41.1549 11.1119 41.1549 6.23089C41.1566 0.832663 37.1523 -0.00012207 32.8593 -0.00012207Z" fill="white"/>
</g>
</g>
<defs>
<clipPath id="clip0_634_96223">
<rect width="87.84" height="24" fill="white"/>
</clipPath>
</defs>
</svg>
