<svg width="24" height="24" viewBox="0 0 24 24" fill="none" xmlns="http://www.w3.org/2000/svg">
<path d="M11.9902 0H12.0098C18.6307 0 24 5.2282 24 11.675V12.325C24 18.7718 18.6307 24 12.0098 24H11.9902C5.36933 24 0 18.7718 0 12.325V11.675C0 5.2282 5.36933 0 11.9902 0Z" fill="#232323"/>
<path d="M17.0064 8.99998C16.968 9.04318 16.92 9.07678 16.8672 9.09598C16.8144 9.11998 16.7568 9.12958 16.6992 9.12958H5.82724C5.44324 9.12958 5.24644 8.64958 5.51524 8.36158L7.30084 6.46558C7.33924 6.42238 7.38724 6.38878 7.44484 6.36478C7.49764 6.34078 7.55524 6.33118 7.61284 6.33118H18.528C18.9168 6.33118 19.1088 6.81598 18.8352 7.10398L17.0064 8.99998ZM17.0064 17.4768C16.9248 17.5584 16.8144 17.6064 16.6992 17.6064H5.82724C5.44324 17.6064 5.24644 17.136 5.51524 16.8576L7.30084 15.0048C7.33924 14.9616 7.39204 14.928 7.44484 14.9088C7.49764 14.8848 7.55524 14.8752 7.61284 14.8752H18.528C18.9168 14.8752 19.1088 15.3504 18.8352 15.6288L17.0064 17.4768ZM17.0064 10.7328C16.9248 10.6512 16.8144 10.6032 16.6992 10.6032H5.82724C5.44324 10.6032 5.24644 11.0736 5.51524 11.352L7.30084 13.2048C7.33924 13.248 7.39204 13.2816 7.44484 13.3008C7.49764 13.3248 7.55524 13.3344 7.61284 13.3344H18.528C18.9168 13.3344 19.1088 12.8592 18.8352 12.5808L17.0064 10.7328Z" fill="url(#paint0_linear_375_14710)"/>
<defs>
<linearGradient id="paint0_linear_375_14710" x1="6.22103" y1="17.7471" x2="18.0979" y2="6.18398" gradientUnits="userSpaceOnUse">
<stop stop-color="#CF41E8"/>
<stop offset="1" stop-color="#10F2B0"/>
</linearGradient>
</defs>
</svg>
